<svg xmlns="http://www.w3.org/2000/svg" viewBox="0 0 100 100" role="img" aria-labelledby="title desc">
	<title id="title">Solutions By Design convergence mark</title>
	<desc id="desc">A circular technical symbol showing four routed paths converging on a central solution node, in black and deep blue.</desc>
	<circle cx="50" cy="50" r="45" fill="none" stroke="#102d4d" stroke-width="2.5" />
	<circle cx="50" cy="50" r="39" fill="none" stroke="#31577e" stroke-width="1" stroke-dasharray="2 4" />
	<path d="M50 14V32L42 40M86 50H68L60 42M50 86V68L58 60M14 50H32L40 58" fill="none" stroke="#07121f" stroke-width="4" stroke-linecap="square" stroke-linejoin="round" />
	<path d="M50 14V22M86 50H78M50 86V78M14 50H22" fill="none" stroke="#173f6b" stroke-width="2" />
	<circle cx="50" cy="12" r="3" fill="#173f6b" />
	<circle cx="88" cy="50" r="3" fill="#173f6b" />
	<circle cx="50" cy="88" r="3" fill="#173f6b" />
	<circle cx="12" cy="50" r="3" fill="#173f6b" />
	<path d="M50 36L64 50L50 64L36 50Z" fill="#173f6b" />
	<path d="M50 42L58 50L50 58L42 50Z" fill="#07121f" />
</svg>