<svg xmlns="http://www.w3.org/2000/svg" viewBox="0 0 100 100" role="img" aria-labelledby="title desc"><title id="title">Solutions By Design mark</title><desc id="desc">A dynamic blue and teal abstract S and D mark.</desc><defs><linearGradient id="blueTeal" x1="0" y1="0" x2="1" y2="1"><stop offset="0" stop-color="#0050a7"/><stop offset=".5" stop-color="#00b8e8"/><stop offset="1" stop-color="#17d0ad"/></linearGradient></defs><path fill="url(#blueTeal)" d="M15 19h55c9 0 16 3 21 10H34c-5 0-8 1-9 4 0 2 3 5 8 8l22 15c10 7 13 14 11 22-3 10-13 17-29 17H8l12-14h28c5 0 8-1 9-4 1-2-2-5-7-8L28 53C15 44 9 34 12 27c1-3 2-6 3-8Z"/><path fill="#0568c1" d="M38 33h28c16 0 28 8 32 21 4 14-3 29-15 37-6 4-13 5-25 5H40c9-5 16-12 20-20h15c7 0 12-4 13-10 1-8-5-14-15-14H50L38 33Z" opacity=".9"/><rect width="8" height="8" x="80" y="8" rx="2" fill="#17d0ad"/><rect width="7" height="7" x="70" y="19" rx="2" fill="#00b8e8"/><rect width="6" height="6" x="82" y="24" rx="2" fill="#17d0ad"/></svg>